:version 1.10
:name ASF
:units
  mass 1
  length 1
  angle deg
:documentation
  ASF file generated by Kaydara
:root
  axis xyz
  order  tx ty tz rx ry rz
  position 0 0 0
  orientation 0 0 0
:bonedata
  begin
    id 1
    name RightUpLegDummy
    direction -1 2.30186e-007 8.31532e-007
    length 4.04083
    axis 0 0 0 xyz
  end
  begin
    id 2
    name RightUpLeg
    direction -0.000919234 -0.999985 0.00544864
    length 17.4221
    axis -3.80308 -0.00076134 -0.0523649 xyz
    dof rx ry rz
  end
  begin
    id 3
    name RightLeg
    direction -0.000919271 -0.999984 -0.00555045
    length 17.1239
    axis 4.00314 0.0181274 -0.183583 xyz
    dof rx ry rz
  end
  begin
    id 4
    name RightFoot
    direction -2.57843e-005 -4.04509e-007 1
    length 6.72091
    axis 8.18909e-005 -0.122003 -0.403008 xyz
    dof rx ry rz
  end
  begin
    id 5
    name RightToes
    direction 0.00116825 -0.014069 0.9999
    length 3.85082
    axis 0.000514414 0.540638 -0.356797 xyz
    dof rx ry rz
  end
  begin
    id 6
    name SpineDummy
    direction 0.0168869 0.966876 -0.254689
    length 6.99894
    axis 0 0 0 xyz
  end
  begin
    id 7
    name Spine
    direction -0.0132008 0.999903 0.00446247
    length 11.1999
    axis -0.00148109 0.00725429 0.756411 xyz
    dof rx ry rz
  end
  begin
    id 8
    name Spine1
    direction 0 0 0
    length 0
    axis -0.000934958 0.0245693 1.46543 xyz
    dof rx ry rz
  end
  begin
    id 9
    name HEadDummy
    direction -0.0255732 0.999672 0.00128215
    length 3.43865
    axis -0.000934958 0.0245693 1.46543 xyz
  end
  begin
    id 10
    name HEad
    direction -0.0472656 0.980052 0.19304
    length 5.12695
    axis -0.000934954 0.0245693 1.46543 xyz
    dof rx ry rz
  end
  begin
    id 11
    name LeftShoulder1Dummy
    direction 0.953098 0.301717 -0.023914
    length 3.68488
    axis -0.000934958 0.0245693 1.46543 xyz
  end
  begin
    id 12
    name LeftShoulder1
    direction 0.962466 0.271167 0.0112566
    length 3.13809
    axis -0.000934958 0.0245693 1.46543 xyz
    dof rx ry rz
  end
  begin
    id 13
    name LeftArm
    direction 0.999943 0.00455037 -0.00961766
    length 11.3419
    axis -23.1648 0.685459 1.22814 xyz
    dof rx ry rz
  end
  begin
    id 14
    name LeftForeArm
    direction 0.999332 0.0131969 0.0340885
    length 8.70632
    axis -9.90633 0.618216 0.0826942 xyz
    dof rx ry rz
  end
  begin
    id 15
    name LeftHand
    direction 0.994373 -0.0366703 0.0993905
    length 5.32135
    axis 0.00675269 0.680415 0.445699 xyz
    dof rx ry rz
  end
  begin
    id 16
    name RightShoulderDummy
    direction -0.967298 0.252589 -0.0230903
    length 3.68488
    axis -0.000934958 0.0245693 1.46543 xyz
  end
  begin
    id 17
    name RightShoulder
    direction -0.975062 0.221602 0.0120823
    length 3.13809
    axis 0.216257 0.0246515 1.45863 xyz
    dof rx ry rz
  end
  begin
    id 18
    name RightArm
    direction -0.99886 -0.00851186 -0.0469687
    length 10.3947
    axis -23.196 0.23503 -0.532632 xyz
    dof rx ry rz
  end
  begin
    id 19
    name RightForeArm
    direction -0.99909 0.00114866 0.0426317
    length 8.68355
    axis -9.91764 -0.134943 0.610517 xyz
    dof rx ry rz
  end
  begin
    id 20
    name RightHand
    direction -0.992888 -0.0489538 0.10852
    length 5.28593
    axis -0.00275396 -0.197403 0.246414 xyz
    dof rx ry rz
  end
  begin
    id 21
    name LeftUpLegDummy
    direction 1 -2.30186e-007 -8.31532e-007
    length 4.04083
    axis 0 0 0 xyz
  end
  begin
    id 22
    name LeftUpLeg
    direction -0.000920097 -1 2.79241e-006
    length 17.4221
    axis -3.48782 0.00143434 -0.0532288 xyz
    dof rx ry rz
  end
  begin
    id 23
    name LeftLeg
    direction -0.000920097 -1 2.7912e-006
    length 17.1239
    axis 3.68162 -0.00806512 -0.0529896 xyz
    dof rx ry rz
  end
  begin
    id 24
    name LeftFoot
    direction -2.57845e-005 -3.987e-007 1
    length 6.72091
    axis 3.02372e-005 -0.00147829 -0.214229 xyz
    dof rx ry rz
  end
  begin
    id 25
    name LeftToes
    direction 0.00813577 -0.00488255 0.999955
    length 3.85048
    axis 3.89895e-005 -0.0014783 -0.214229 xyz
    dof rx ry rz
  end
:hierarchy
  begin
    root RightUpLegDummy SpineDummy LeftUpLegDummy
    RightUpLegDummy RightUpLeg
    RightUpLeg RightLeg
    RightLeg RightFoot
    RightFoot RightToes
    SpineDummy Spine
    Spine Spine1
    Spine1 HEadDummy LeftShoulder1Dummy RightShoulderDummy
    HEadDummy HEad
    LeftShoulder1Dummy LeftShoulder1
    LeftShoulder1 LeftArm
    LeftArm LeftForeArm
    LeftForeArm LeftHand
    RightShoulderDummy RightShoulder
    RightShoulder RightArm
    RightArm RightForeArm
    RightForeArm RightHand
    LeftUpLegDummy LeftUpLeg
    LeftUpLeg LeftLeg
    LeftLeg LeftFoot
    LeftFoot LeftToes
  end

:SAMPLES-PER-SECOND 30
:FULLY-SPECIFIED
:DEGREES
88
root  -10.4173 34.7144 -12.8104 -171.491 6.61255 -179.853
RightUpLeg  -3.17691 -15.101 -2.80012
RightLeg  0.700134 -2.71516 0.141879
RightFoot  6.70622 0.0636197 -0.150053
RightToes  -27.3356 -0.117119 -0.230814
Spine  -3.20224 0.46563 -1.03593
Spine1  -6.36226 0.813018 -1.22459
HEad  -59.8285 3.60551 11.4609
LeftShoulder1  -1.94126e-019 -3.10601e-018 -2.51263e-017
LeftArm  -5.58271 25.6726 -75.6347
LeftForeArm  32.0962 -23.9301 -3.81685
LeftHand  -0.219664 -0.369259 4.50249
RightShoulder  -4.96962e-017 0 -2.36833e-017
RightArm  -63.0599 14.0336 45.1478
RightForeArm  -172.542 64.3728 161.226
RightHand  1.32571 -11.1485 -26.381
LeftUpLeg  -3.49287 3.70736 3.66332
LeftLeg  0.305334 13.8744 -0.810585
LeftFoot  7.75232 -0.133713 2.08028
LeftToes  -25.7959 2.14545e-006 -7.7278e-009
89
root  -10.4012 34.714 -12.8052 -171.47 6.81091 -179.814
RightUpLeg  -3.24134 -15.0281 -2.73794
RightLeg  0.707693 -2.60246 0.135654
RightFoot  6.71529 0.062336 -0.138522
RightToes  -27.3337 -0.117119 -0.230814
Spine  -3.20092 0.402548 -0.96702
Spine1  -6.34065 0.677379 -1.07152
HEad  -60.308 3.99355 11.0171
LeftShoulder1  -1.94126e-019 -3.10601e-018 -2.51263e-017
LeftArm  -5.51135 25.7534 -75.6764
LeftForeArm  31.9125 -23.9671 -3.82049
LeftHand  -0.229302 -0.314275 4.73806
RightShoulder  -4.96962e-017 0 -2.36833e-017
RightArm  -59.9007 12.9202 44.9467
RightForeArm  -169.72 63.407 162.244
RightHand  1.2444 -10.5288 -27.6645
LeftUpLeg  -3.48752 3.83587 3.71189
LeftLeg  0.323673 13.9406 -0.809948
LeftFoot  7.74241 -0.13413 2.0872
LeftToes  -25.74 2.14545e-006 -7.7278e-009
90
root  -10.3839 34.7138 -12.8018 -171.415 7.06194 -179.803
RightUpLeg  -3.33019 -14.8563 -2.69061
RightLeg  0.686128 -2.53131 0.132899
RightFoot  6.72071 0.0614205 -0.132766
RightToes  -27.2549 -0.117119 -0.230814
Spine  -3.20964 0.244871 -0.902832
Spine1  -6.34092 0.327372 -0.911369
HEad  -60.821 4.66152 10.5016
LeftShoulder1  -1.94126e-019 -3.10601e-018 -2.51263e-017
LeftArm  -5.89091 26.0082 -75.6896
LeftForeArm  31.9494 -23.9102 -3.81119
LeftHand  -0.227216 -0.245425 4.74596
RightShoulder  -4.96962e-017 0 -2.36833e-017
RightArm  -52.9714 11.4304 44.196
RightForeArm  -164.447 60.8853 164.431
RightHand  0.857077 -8.82617 -28.4917
LeftUpLeg  -3.53051 4.09602 3.73275
LeftLeg  0.388154 13.9265 -0.793582
LeftFoot  7.74238 -0.133967 2.08477
LeftToes  -25.8428 2.14545e-006 -7.7278e-009
91
root  -10.37 34.714 -12.7953 -171.36 7.36943 -179.801
RightUpLeg  -3.41658 -14.6435 -2.66058
RightLeg  0.622643 -2.46498 0.132141
RightFoot  6.75311 0.0607421 -0.130916
RightToes  -27.2341 -0.117119 -0.230814
Spine  -3.2311 0.0525332 -0.851241
Spine1  -6.35803 -0.114281 -0.766795
HEad  -61.226 5.3348 10.0495
LeftShoulder1  -1.94126e-019 -3.10601e-018 -2.51263e-017
LeftArm  -6.28362 26.2082 -75.6943
LeftForeArm  32.2377 -23.4959 -3.76885
LeftHand  -0.238103 -0.283876 4.94183
RightShoulder  -4.96962e-017 0 -2.36833e-017
RightArm  -44.0853 10.2821 43.1227
RightForeArm  -157.454 57.9852 166.625
RightHand  0.338433 -6.77414 -28.1273
LeftUpLeg  -3.56444 4.36344 3.7331
LeftLeg  0.441638 13.9622 -0.782643
LeftFoot  7.7259 -0.133872 2.08304
LeftToes  -25.8544 2.14545e-006 -7.7278e-009
92
root  -10.3546 34.7146 -12.7852 -171.322 7.7373 -179.763
RightUpLeg  -3.48628 -14.3665 -2.60099
RightLeg  0.540298 -2.37519 0.130732
RightFoot  6.82238 0.0599474 -0.127932
RightToes  -27.2828 -0.117119 -0.230814
Spine  -3.23182 -0.0408076 -0.818664
Spine1  -6.33549 -0.35616 -0.673553
HEad  -61.4875 5.75867 9.86648
LeftShoulder1  -1.94126e-019 -3.10601e-018 -2.51263e-017
LeftArm  -6.59003 26.0855 -75.7025
LeftForeArm  32.7124 -22.8172 -3.71299
LeftHand  -0.246542 -0.311136 5.0938
RightShoulder  -4.96962e-017 0 -2.36833e-017
RightArm  -35.9205 9.28947 41.9804
RightForeArm  -146.904 55.5101 168.507
RightHand  -0.328639 -4.03813 -27.6514
LeftUpLeg  -3.53776 4.64166 3.76563
LeftLeg  0.430185 14.0477 -0.790125
LeftFoot  7.72746 -0.134533 2.09271
LeftToes  -25.9429 2.14545e-006 -7.7278e-009
93
root  -10.3424 34.7166 -12.7607 -171.344 8.002 -179.722
RightUpLeg  -3.51182 -14.1881 -2.54636
RightLeg  0.479485 -2.29006 0.128472
RightFoot  6.88776 0.0590888 -0.124571
RightToes  -27.2964 -0.117119 -0.230814
Spine  -3.1645 0.0304417 -0.832248
Spine1  -6.18523 -0.246395 -0.684607
HEad  -61.8635 5.59149 10.2289
LeftShoulder1  -1.94126e-019 -3.10601e-018 -2.51263e-017
LeftArm  -7.13215 25.5364 -75.7471
LeftForeArm  33.5239 -22.1962 -3.66945
LeftHand  -0.258377 -0.350286 5.30366
RightShoulder  -4.96962e-017 0 -2.36833e-017
RightArm  -31.1744 8.0272 41.2238
RightForeArm  -133.962 54.4301 169.646
RightHand  -0.987792 -1.77035 -31.1272
LeftUpLeg  -3.4507 4.67904 3.8082
LeftLeg  0.3315 14.2711 -0.826814
LeftFoot  7.75528 -0.137019 2.13038
LeftToes  -25.8486 2.14545e-006 -7.7278e-009
